<mxfile host="app.diagrams.net" modified="2025-04-23T06:21:13.777877" agent="python">
  <diagram name="Architecture">
    <mxGraphModel dx="1294" dy="831" grid="1" gridSize="10" guides="1" tooltips="1" connect="1" arrows="1" fold="1" page="1" pageScale="1" pageWidth="827" pageHeight="1169" math="0">
      <root>
        <mxCell id="0"/>
        <mxCell id="1" parent="0"/>
        <!-- Raspberry Pi 5 -->
        <mxCell id="pi5" value="Raspberry Pi 5&#xa;(Ubuntu 22.04, ROS 2, MoveIt 2, YOLOv8)" style="rounded=1;whiteSpace=wrap;html=1;fillColor=#dae8fc;strokeColor=#6c8ebf;" vertex="1" parent="1">
          <mxGeometry x="340" y="240" width="220" height="100" as="geometry"/>
        </mxCell>
        <!-- Hailo HAT+ -->
        <mxCell id="hailo" value="Hailo-8L AI HAT+" style="rounded=1;whiteSpace=wrap;html=1;fillColor=#fff2cc;strokeColor=#d6b656;" vertex="1" parent="1">
          <mxGeometry x="370" y="150" width="160" height="60" as="geometry"/>
        </mxCell>
        <!-- Camera V2 -->
        <mxCell id="cam" value="Camera Module V2" style="rounded=1;whiteSpace=wrap;html=1;fillColor=#e1d5e7;strokeColor=#9673a6;" vertex="1" parent="1">
          <mxGeometry x="100" y="240" width="160" height="60" as="geometry"/>
        </mxCell>
        <!-- SO-100 Arm -->
        <mxCell id="arm" value="SO‑100 Robot Arm&#xa;(Bus Servos)" style="rounded=1;whiteSpace=wrap;html=1;fillColor=#d5e8d4;strokeColor=#82b366;" vertex="1" parent="1">
          <mxGeometry x="620" y="240" width="180" height="80" as="geometry"/>
        </mxCell>
        <!-- ATmega2560 -->
        <mxCell id="mcu" value="ATmega2560&#xa;(Gripper I/O)" style="rounded=1;whiteSpace=wrap;html=1;fillColor=#f8cecc;strokeColor=#b85450;" vertex="1" parent="1">
          <mxGeometry x="620" y="360" width="180" height="60" as="geometry"/>
        </mxCell>
        <!-- Edges -->
        <mxCell id="edge1" value="CSI‑2" style="endArrow=classic;html=1;" edge="1" parent="1" source="cam" target="pi5">
          <mxGeometry relative="1" as="geometry"/>
        </mxCell>
        <mxCell id="edge2" value="PCIe 2.0 x1 (internal)" style="endArrow=none;dashed=1;html=1;" edge="1" parent="1" source="pi5" target="hailo">
          <mxGeometry relative="1" as="geometry"/>
        </mxCell>
        <mxCell id="edge3" value="UART BUS" style="endArrow=classic;html=1;" edge="1" parent="1" source="pi5" target="arm">
          <mxGeometry relative="1" as="geometry"/>
        </mxCell>
        <mxCell id="edge4" value="USB Serial" style="endArrow=classic;html=1;" edge="1" parent="1" source="pi5" target="mcu">
          <mxGeometry relative="1" as="geometry"/>
        </mxCell>
        <mxCell id="edge5" value="PWM / Valve Ctrl" style="endArrow=classic;html=1;" edge="1" parent="1" source="mcu" target="arm">
          <mxGeometry relative="1" as="geometry">
            <mxPoint x="710" y="320" as="targetPoint"/>
          </mxGeometry>
        </mxCell>
      </root>
    </mxGraphModel>
  </diagram>
</mxfile>
